<svg xmlns="http://www.w3.org/2000/svg" width="161" height="80" viewBox="0 0 161 80" fill="none"><path d="M0.5 10C0.5 4.47715 4.97715 0 10.5 0H150.5C156.023 0 160.5 4.47715 160.5 10V70C160.5 75.5228 156.023 80 150.5 80H10.5C4.97715 80 0.5 75.5228 0.5 70V10Z" fill="#3654FF"></path><path d="M45.802 30.801C45.603 30.111 45.323 29.497 44.964 28.962C44.605 28.427 44.166 27.973 43.65 27.598C43.134 27.224 42.547 26.938 41.889 26.739C41.231 26.541 40.504 26.441 39.709 26.441C38.222 26.441 36.917 26.81 35.795 27.549C34.673 28.287 33.799 29.36 33.174 30.766C32.549 32.172 32.236 33.889 32.236 35.915C32.236 37.941 32.544 39.665 33.159 41.085C33.774 42.506 34.645 43.588 35.772 44.331C36.899 45.074 38.23 45.446 39.764 45.446C41.156 45.446 42.347 45.197 43.336 44.7C44.326 44.203 45.084 43.5 45.609 42.591C46.1078 41.7274 46.37 40.715 46.395 39.551H40.147V34.92H52.321V38.585C52.321 41.142 51.781 43.337 50.702 45.169C49.623 47.001 48.136 48.412 46.242 49.402C44.348 50.391 42.18 50.886 39.737 50.886C37.009 50.886 34.614 50.282 32.549 49.074C30.484 47.866 28.877 46.148 27.726 43.918C26.576 41.688 26 39.039 26 35.971C26 33.613 26.343 31.508 27.03 29.658C27.717 27.806 28.68 26.237 29.921 24.949C31.161 23.661 32.606 22.68 34.254 22.009C35.901 21.336 37.687 21 39.609 21C41.257 21 42.791 21.239 44.211 21.718C45.632 22.196 46.894 22.87 47.997 23.741C49.1 24.613 50.002 25.647 50.703 26.845C51.404 28.042 51.853 29.362 52.053 30.8L45.802 30.801Z" fill="white"></path><path fill-rule="evenodd" clip-rule="evenodd" d="M63.045 50.901C61.653 50.901 60.412 50.657 59.323 50.17C58.234 49.683 57.375 48.958 56.745 47.997C56.115 47.035 55.801 45.835 55.801 44.395C55.801 43.183 56.023 42.166 56.468 41.341C56.913 40.516 57.519 39.855 58.286 39.353C59.053 38.851 59.927 38.472 60.907 38.216C61.887 37.96 62.917 37.78 63.996 37.676C65.265 37.544 66.288 37.418 67.064 37.3C67.84 37.182 68.404 37.004 68.754 36.767C69.104 36.531 69.279 36.18 69.279 35.716V35.631C69.279 34.732 68.997 34.035 68.434 33.543C67.871 33.05 67.073 32.804 66.04 32.804C64.951 32.804 64.084 33.043 63.441 33.522C62.797 34.001 62.371 34.599 62.163 35.319L56.566 34.864C56.85 33.539 57.409 32.39 58.242 31.42C59.075 30.449 60.152 29.701 61.473 29.176C62.794 28.651 64.326 28.388 66.068 28.388C67.28 28.388 68.442 28.53 69.555 28.814C70.668 29.098 71.658 29.539 72.524 30.135C73.391 30.732 74.075 31.496 74.577 32.429C75.079 33.362 75.33 34.477 75.33 35.774V50.49H69.591V47.465H69.421C69.07 48.147 68.602 48.746 68.015 49.262C67.428 49.779 66.723 50.181 65.899 50.469C65.077 50.756 64.125 50.901 63.045 50.901ZM64.778 46.725C65.668 46.725 66.454 46.547 67.136 46.192C67.818 45.838 68.353 45.357 68.741 44.751C69.129 44.145 69.323 43.458 69.323 42.691V40.376C69.134 40.499 68.876 40.61 68.549 40.71C68.222 40.81 67.855 40.899 67.448 40.98C67.041 41.061 66.634 41.131 66.227 41.193C65.82 41.255 65.45 41.309 65.119 41.357C64.409 41.461 63.788 41.627 63.258 41.854C62.727 42.081 62.316 42.386 62.022 42.77C61.728 43.154 61.582 43.629 61.582 44.198C61.582 45.021 61.882 45.649 62.484 46.08C63.086 46.511 63.85 46.725 64.778 46.725Z" fill="white"></path><path d="M86.085 50.489V21.398H80.034V50.489H86.085Z" fill="white"></path><path fill-rule="evenodd" clip-rule="evenodd" d="M100.771 50.916C98.564 50.916 96.66 50.444 95.054 49.502C93.449 48.561 92.21 47.244 91.339 45.554C90.468 43.864 90.032 41.901 90.032 39.666C90.032 37.412 90.468 35.439 91.339 33.749C92.21 32.06 93.448 30.743 95.054 29.801C96.66 28.859 98.564 28.388 100.771 28.388C102.978 28.388 104.883 28.859 106.489 29.801C108.093 30.743 109.332 32.06 110.203 33.749C111.074 35.439 111.51 37.412 111.51 39.666C111.51 41.9 111.074 43.863 110.203 45.554C109.332 47.245 108.094 48.561 106.489 49.502C104.884 50.444 102.978 50.916 100.771 50.916ZM100.801 46.228C101.804 46.228 102.643 45.941 103.315 45.369C103.987 44.796 104.497 44.013 104.842 43.017C105.188 42.023 105.36 40.891 105.36 39.622C105.36 38.353 105.188 37.222 104.842 36.227C104.496 35.232 103.987 34.447 103.315 33.869C102.643 33.292 101.804 33.003 100.801 33.003C99.787 33.003 98.938 33.292 98.25 33.869C97.564 34.447 97.048 35.232 96.702 36.227C96.356 37.221 96.183 38.353 96.183 39.622C96.183 40.891 96.356 42.022 96.702 43.017C97.048 44.012 97.564 44.795 98.25 45.369C98.937 45.941 99.787 46.228 100.801 46.228Z" fill="white"></path><path d="M116.319 58.45C116.987 58.568 117.703 58.628 118.471 58.628C119.967 58.628 121.247 58.389 122.308 57.91C123.369 57.431 124.247 56.759 124.943 55.893C125.638 55.027 126.19 54.011 126.597 52.846L135.077 28.699L128.671 28.671L124.11 44.693H123.883L119.365 28.671H113.002L120.828 51.113L120.474 52.037C120.047 53.021 119.467 53.592 118.735 53.748C118.001 53.904 117.098 53.817 116.028 53.485L114.665 58.016C115.1 58.187 115.652 58.332 116.319 58.45Z" fill="white"></path></svg>