<?xml version="1.0" encoding="utf-8"?>
<!-- Generator: Adobe Illustrator 23.0.6, SVG Export Plug-In . SVG Version: 6.00 Build 0)  -->
<!DOCTYPE svg PUBLIC "-//W3C//DTD SVG 1.1//EN" "http://www.w3.org/Graphics/SVG/1.1/DTD/svg11.dtd" [
	<!ENTITY ns_extend "http://ns.adobe.com/Extensibility/1.0/">
	<!ENTITY ns_ai "http://ns.adobe.com/AdobeIllustrator/10.0/">
	<!ENTITY ns_graphs "http://ns.adobe.com/Graphs/1.0/">
	<!ENTITY ns_vars "http://ns.adobe.com/Variables/1.0/">
	<!ENTITY ns_imrep "http://ns.adobe.com/ImageReplacement/1.0/">
	<!ENTITY ns_sfw "http://ns.adobe.com/SaveForWeb/1.0/">
	<!ENTITY ns_custom "http://ns.adobe.com/GenericCustomNamespace/1.0/">
	<!ENTITY ns_adobe_xpath "http://ns.adobe.com/XPath/1.0/">
]>
<svg version="1.1" id="Layer_1" xmlns:x="&ns_extend;" xmlns:i="&ns_ai;" xmlns:graph="&ns_graphs;"
	 xmlns="http://www.w3.org/2000/svg" xmlns:xlink="http://www.w3.org/1999/xlink" x="0px" y="0px" width="72.1px" height="24.5px"
	 viewBox="0 0 72.1 24.5" style="enable-background:new 0 0 72.1 24.5;" xml:space="preserve">
<style type="text/css">
	.st0{fill:#0052CC;}
	.st1{fill:#FFFFFF;}
	.st2{fill:#F5FAFF;}
	.st3{fill:#072239;}
	.st4{fill:#30475C;}
	.st5{fill:#1B1B1D;}
	.st6{fill:#3654FF;}
</style>
<metadata>
	<sfw  xmlns="&ns_sfw;">
		<slices></slices>
		<sliceSourceBounds  bottomLeftOrigin="true" height="2024" width="4456.8" x="-1014.4" y="-2148"></sliceSourceBounds>
		<optimizationSettings>
			<targetSettings  fileFormat="JPEGFormat" targetSettingsID="0">
				
					<JPEGFormat  blurAmount="0" embedICCProfile="false" matteColor="#FFFFFF" noMatteColor="false" optimized="true" progressive="false" quality="100">
					</JPEGFormat>
			</targetSettings>
		</optimizationSettings>
	</sfw>
</metadata>
<path class="st6" d="M0,3.1C0,1.4,1.4,0,3.1,0h66c1.7,0,3.1,1.4,3.1,3.1v18.4c0,1.7-1.4,3.1-3.1,3.1h-66c-1.7,0-3.1-1.4-3.1-3.1V3.1
	z"/>
<g>
	<path class="st1" d="M32,17.3c-0.7,0-1.2-0.1-1.8-0.3c-0.5-0.2-1-0.5-1.3-0.9c-0.4-0.4-0.7-0.9-0.9-1.5c-0.2-0.6-0.3-1.3-0.3-2.2
		c0-0.8,0.1-1.5,0.3-2.2c0.2-0.6,0.5-1.2,0.9-1.6c0.4-0.4,0.8-0.8,1.3-1c0.5-0.2,1.1-0.3,1.8-0.3c0.9,0,1.6,0.2,2.2,0.6
		c0.6,0.4,1.1,0.9,1.4,1.7l-1.8,0.9c-0.1-0.4-0.3-0.7-0.6-1c-0.3-0.2-0.7-0.4-1.2-0.4c-0.6,0-1.1,0.2-1.5,0.6
		c-0.4,0.4-0.6,1-0.6,1.7V13c0,0.8,0.2,1.4,0.6,1.8c0.4,0.4,0.9,0.6,1.5,0.6c0.5,0,0.9-0.1,1.2-0.4c0.3-0.3,0.5-0.6,0.7-1l1.7,1
		c-0.4,0.7-0.8,1.3-1.4,1.7C33.7,17.1,32.9,17.3,32,17.3z"/>
	<path class="st1" d="M43,17.1l-0.7-2.3h-3.2l-0.7,2.3h-2.1l3.2-9.7H42l3.2,9.7H43z M40.7,9.3L40.7,9.3L39.6,13h2.2L40.7,9.3z"/>
	<path class="st1" d="M46.5,17.1V7.4h2.1v7.8h3.7v1.9H46.5z"/>
	<path class="st1" d="M60.1,17.1l-0.7-2.3h-3.2l-0.7,2.3h-2.1l3.2-9.7h2.6l3.2,9.7H60.1z M57.8,9.3L57.8,9.3L56.7,13h2.2L57.8,9.3z"
		/>
	<path class="st1" d="M24.4,13.4h-6.6v1.5h6.6V13.4z"/>
	<path class="st1" d="M16.4,13.4H9.8v1.5h6.6V13.4z"/>
	<path class="st1" d="M24.4,9.7h-6.6v1.4h6.6V9.7z"/>
	<path class="st1" d="M16.4,9.7H9.8v1.4h6.6V9.7z"/>
</g>
</svg>
